<svg xmlns="http://www.w3.org/2000/svg" width="14.018" height="8.177" viewBox="0 0 14.018 8.177" class="w-4 h-4 mx-px"><path data-name="Path 15861" d="M192.175,1013.175a.565.565,0,0,1,.818,0l3.972,3.972,2.511-2.511a.565.565,0,0,1,.818,0l5.549,5.549a.578.578,0,1,1-.818.818l-5.14-5.14-2.512,2.512a.565.565,0,0,1-.818,0l-4.381-4.381A.565.565,0,0,1,192.175,1013.175Z" transform="translate(-192 -1013)" fill="currentColor"></path><path data-name="Path 15862" d="M212.089,1019a.585.585,0,0,1,.584.584v3.5a.552.552,0,0,1-.584.584h-3.5a.584.584,0,1,1,0-1.168h2.92v-2.92A.585.585,0,0,1,212.089,1019Z" transform="translate(-198.655 -1015.495)" fill="currentColor"></path></svg>